<svg xmlns="http://www.w3.org/2000/svg" version="1.1" viewBox="0 0 500 250" aria-label="Bubble Shapes Abstract Pattern">
 <g fill="#c7826b" opacity="0.25">
  <path d="m21.5 13.262c-0.57 10.625-15.91 10.625-16.484 0-0.5707-10.633 15.918-10.574 16.484 0 0.176 3.207 5.176 3.222 5 0-0.402-7.4925-5.75-12.84-13.242-13.242-7.4728-0.40281-12.871 6.3589-13.242 13.242-0.40272 7.472 6.359 12.871 13.242 13.242 7.476 0.402 12.875-6.359 13.242-13.242 0.176-3.227-4.824-3.207-5 0"/>
  <path d="m118.62 53.605c-0.35 18.254-14.74 32.649-32.999 33-18.254 0.356-32.656-15.277-33-33-0.351-18.25 15.277-32.656 33-33 18.259-0.351 32.659 15.282 32.999 33 0.06 3.223 5.06 3.227 5 0-0.41-20.988-17.01-37.593-37.999-38-20.992-0.402-37.605 17.622-38 38-0.406 20.993 17.617 37.61 38 38 20.989 0.407 37.609-17.617 37.999-38 0.06-3.222-4.94-3.218-5 0"/>
  <path d="m93.758 33.254c5.566 0.148 9.852 4.43 10.002 10 0.08 3.215 5.08 3.223 5 0-0.23-8.324-6.68-14.777-15.002-15-3.227-0.09-3.219 4.91 0 5"/>
  <path d="m53.074 109.27c-0.336 10.42-8.23 18.32-18.656 18.65-10.422 0.34-18.336-8.74-18.66-18.65-0.336-10.426 8.746-18.344 18.66-18.665 10.422-0.335 18.336 8.747 18.656 18.665 0.106 3.21 5.106 3.22 5 0-0.426-13.192-10.472-23.239-23.656-23.665-13.18-0.425-23.254 11.114-23.66 23.665-0.426 13.17 11.113 23.25 23.66 23.65 13.18 0.43 23.25-11.11 23.656-23.65 0.106-3.23-4.894-3.22-5 0"/>
  <path d="m39.266 98.141c2.761 0.078 4.875 2.189 4.949 4.949 0.09 3.22 5.09 3.23 5 0-0.149-5.516-4.43-9.801-9.949-9.949-3.227-0.086-3.219 4.914 0 5"/>
  <path d="m86.531 183.23c-0.336 10.43-8.23 18.32-18.656 18.66-10.422 0.34-18.34-8.74-18.66-18.66-0.336-10.42 8.746-18.34 18.66-18.66 10.418-0.33 18.336 8.75 18.656 18.66 0.106 3.22 5.106 3.23 5 0-0.426-13.18-10.472-23.23-23.656-23.66-13.18-0.42-23.254 11.12-23.66 23.66-0.426 13.18 11.113 23.25 23.66 23.66 13.18 0.43 23.254-11.11 23.656-23.66 0.106-3.22-4.894-3.21-5 0"/>
  <path d="m72.723 172.11c2.761 0.08 4.875 2.19 4.949 4.95 0.09 3.22 5.09 3.23 5 0-0.149-5.52-4.43-9.8-9.949-9.95-3.227-0.09-3.219 4.91 0 5"/>
  <path d="m110.92 155.37c-0.57 10.63-15.908 10.63-16.482 0-0.571-10.63 15.912-10.57 16.482 0 0.17 3.21 5.18 3.22 5 0-0.4-7.49-5.75-12.84-13.24-13.24-7.473-0.4-12.871 6.36-13.242 13.24-0.403 7.47 6.359 12.87 13.242 13.24 7.47 0.41 12.87-6.36 13.24-13.24 0.18-3.22-4.83-3.21-5 0"/>
  <path d="m21.5 215.13c-0.57 10.63-15.91 10.63-16.484 0-0.5707-10.63 15.918-10.57 16.484 0 0.176 3.21 5.176 3.23 5 0-0.402-7.49-5.75-12.84-13.242-13.24-7.4728-0.4-12.871 6.36-13.242 13.24-0.40272 7.48 6.359 12.87 13.242 13.25 7.476 0.4 12.875-6.36 13.242-13.25 0.176-3.22-4.824-3.2-5 0"/>
  <path d="m334.74 162.07c-0.35 18.26-14.75 32.65-33 33-18.25 0.36-32.66-15.27-33-33-0.35-18.25 15.28-32.65 33-33 18.25-0.35 32.66 15.28 33 33 0.06 3.22 5.06 3.23 5 0-0.4-20.98-17.01-37.59-38-38-20.99-0.4-37.61 17.62-38 38-0.4 21 17.62 37.61 38 38 20.99 0.41 37.61-17.61 38-38 0.06-3.22-4.94-3.21-5 0"/>
  <path d="m309.88 141.72c5.57 0.15 9.85 4.43 10 10 0.08 3.22 5.08 3.23 5 0-0.23-8.32-6.68-14.77-15-15-3.23-0.09-3.22 4.91 0 5"/>
  <path d="m190.29 30.754c-0.33 10.422-8.23 18.32-18.65 18.656-10.43 0.336-18.34-8.742-18.66-18.656-0.34-10.422 8.74-18.34 18.66-18.66 10.41-0.336 18.33 8.746 18.65 18.66 0.11 3.215 5.11 3.223 5 0-0.42-13.188-10.47-23.234-23.65-23.66s-23.26 11.113-23.66 23.66c-0.43 13.18 11.11 23.25 23.66 23.656 13.18 0.426 23.25-11.113 23.65-23.656 0.11-3.227-4.89-3.219-5 0"/>
  <path d="m176.48 19.633c2.77 0.07 4.88 2.187 4.95 4.949 0.09 3.219 5.09 3.227 5 0-0.14-5.52-4.43-9.801-9.95-9.949-3.22-0.09-3.21 4.91 0 5"/>
  <path d="m308.1 81.934c-0.34 10.425-8.23 18.316-18.66 18.656-10.42 0.34-18.33-8.742-18.65-18.656-0.34-10.418 8.74-18.336 18.65-18.657 10.42-0.339 18.34 8.743 18.66 18.657 0.1 3.214 5.1 3.226 5 0-0.43-13.184-10.47-23.231-23.66-23.657-13.18-0.425-23.25 11.114-23.65 23.657-0.43 13.179 11.11 23.256 23.65 23.656 13.18 0.43 23.26-11.11 23.66-23.656 0.1-3.223-4.9-3.215-5 0"/>
  <path d="m294.29 70.812c2.76 0.075 4.88 2.188 4.95 4.95 0.09 3.218 5.09 3.226 5 0-0.15-5.516-4.43-9.801-9.95-9.95-3.22-0.085-3.22 4.915 0 5"/>
  <path d="m210.45 183.23c-0.34 10.43-8.23 18.32-18.66 18.66-10.41 0.34-18.33-8.74-18.65-18.66-0.34-10.42 8.74-18.34 18.65-18.66 10.42-0.33 18.34 8.75 18.66 18.66 0.1 3.22 5.11 3.23 5 0-0.43-13.18-10.47-23.23-23.66-23.66-13.18-0.42-23.25 11.12-23.65 23.66-0.43 13.18 11.11 23.25 23.65 23.66 13.18 0.43 23.26-11.11 23.66-23.66 0.11-3.22-4.9-3.21-5 0"/>
  <path d="m196.64 172.11c2.77 0.08 4.88 2.19 4.95 4.95 0.09 3.22 5.09 3.23 5 0-0.14-5.52-4.43-9.8-9.95-9.95-3.22-0.09-3.21 4.91 0 5"/>
  <path d="m153.11 109.27c-0.58 10.62-15.92 10.62-16.49 0-0.57-10.637 15.92-10.579 16.49 0 0.17 3.2 5.17 3.22 5 0-0.41-7.5-5.76-12.844-13.25-13.247-7.47-0.402-12.87 6.357-13.24 13.247-0.4 7.47 6.36 12.87 13.24 13.24 7.48 0.4 12.87-6.36 13.25-13.24 0.17-3.23-4.83-3.21-5 0"/>
  <path d="m232.94 219.47c-0.58 10.63-15.92 10.63-16.49 0s15.92-10.57 16.49 0c0.17 3.21 5.17 3.23 5 0-0.4-7.49-5.76-12.84-13.24-13.24s-12.88 6.36-13.25 13.24c-0.4 7.48 6.36 12.87 13.25 13.24 7.47 0.41 12.87-6.35 13.24-13.24 0.17-3.22-4.83-3.2-5 0"/>
  <path d="m356.23 89.105c-0.58 10.625-15.92 10.625-16.49 0-0.57-10.628 15.92-10.574 16.49 0 0.17 3.207 5.17 3.223 5 0-0.41-7.488-5.76-12.835-13.25-13.242-7.47-0.402-12.87 6.36-13.24 13.242-0.4 7.473 6.36 12.875 13.24 13.245 7.48 0.4 12.88-6.358 13.25-13.245 0.17-3.222-4.83-3.207-5 0"/>
  <path d="m222.2 89.105c-0.58 10.625-15.92 10.625-16.49 0-0.57-10.628 15.91-10.574 16.49 0 0.17 3.207 5.17 3.223 5 0-0.41-7.488-5.76-12.835-13.25-13.242-7.47-0.402-12.87 6.36-13.24 13.242-0.4 7.473 6.36 12.875 13.24 13.245 7.48 0.4 12.87-6.362 13.25-13.245 0.17-3.222-4.83-3.207-5 0"/>
  <path d="m297.68 24.582c-0.57 10.625-15.91 10.625-16.48 0-0.57-10.633 15.92-10.574 16.48 0 0.18 3.203 5.18 3.223 5 0-0.4-7.492-5.75-12.84-13.24-13.242-7.47-0.402-12.87 6.359-13.24 13.242-0.4 7.473 6.36 12.871 13.24 13.242 7.48 0.403 12.87-6.359 13.24-13.242 0.18-3.227-4.82-3.207-5 0"/>
  <path d="m491.1 53.605c-0.35 18.254-14.75 32.649-33 33-18.26 0.356-32.66-15.277-33-33-0.35-18.25 15.28-32.656 33-33 18.25-0.351 32.66 15.282 33 33 0.06 3.223 5.06 3.227 5 0-0.4-20.988-17.01-37.593-38-38-20.99-0.402-37.61 17.622-38 38-0.4 20.993 17.61 37.61 38 38 20.99 0.407 37.61-17.617 38-38 0.06-3.222-4.94-3.218-5 0"/>
  <path d="m466.23 33.254c5.57 0.148 9.85 4.43 10 10 0.09 3.215 5.09 3.223 5 0-0.22-8.324-6.67-14.777-15-15-3.22-0.09-3.21 4.91 0 5"/>
  <path d="m425.55 109.27c-0.34 10.42-8.23 18.32-18.66 18.65-10.41 0.34-18.33-8.74-18.65-18.65-0.34-10.426 8.74-18.344 18.65-18.665 10.43-0.335 18.34 8.747 18.66 18.665 0.11 3.21 5.11 3.22 5 0-0.43-13.192-10.47-23.239-23.66-23.665-13.18-0.425-23.25 11.114-23.65 23.665-0.43 13.18 11.11 23.25 23.65 23.65 13.18 0.43 23.26-11.11 23.66-23.65 0.11-3.23-4.89-3.22-5 0"/>
  <path d="m411.74 98.141c2.76 0.078 4.88 2.189 4.96 4.949 0.08 3.22 5.08 3.23 5 0-0.15-5.516-4.44-9.801-9.96-9.949-3.22-0.086-3.22 4.914 0 5"/>
  <path d="m459.01 183.23c-0.34 10.43-8.23 18.32-18.66 18.66-10.42 0.34-18.33-8.74-18.65-18.66-0.34-10.42 8.74-18.34 18.65-18.66 10.42-0.33 18.34 8.75 18.66 18.66 0.1 3.22 5.1 3.23 5 0-0.43-13.18-10.47-23.23-23.66-23.66-13.18-0.42-23.25 11.12-23.65 23.66-0.43 13.18 11.1 23.25 23.65 23.66 13.18 0.43 23.26-11.11 23.66-23.66 0.1-3.22-4.9-3.21-5 0"/>
  <path d="m445.2 172.11c2.76 0.08 4.88 2.19 4.95 4.95 0.09 3.22 5.09 3.23 5 0-0.15-5.52-4.43-9.8-9.95-9.95-3.23-0.09-3.22 4.91 0 5"/>
  <path d="m483.4 155.37c-0.57 10.63-15.91 10.63-16.49 0-0.57-10.63 15.92-10.57 16.49 0 0.17 3.21 5.17 3.22 5 0-0.4-7.49-5.75-12.84-13.24-13.24-7.48-0.4-12.87 6.36-13.25 13.24-0.4 7.47 6.36 12.87 13.25 13.24 7.47 0.41 12.87-6.36 13.24-13.24 0.17-3.22-4.83-3.21-5 0"/>
  <path d="m393.98 215.13c-0.57 10.63-15.91 10.63-16.48 0-0.58-10.63 15.91-10.57 16.48 0 0.17 3.21 5.17 3.23 5 0-0.41-7.49-5.75-12.84-13.24-13.24-7.48-0.4-12.87 6.36-13.24 13.24-0.41 7.48 6.35 12.87 13.24 13.25 7.47 0.4 12.87-6.36 13.24-13.25 0.17-3.22-4.83-3.2-5 0"/>
  <path d="m393.98 13.262c-0.57 10.625-15.91 10.625-16.48 0-0.58-10.633 15.91-10.574 16.48 0 0.17 3.207 5.17 3.222 5 0-0.41-7.4925-5.75-12.84-13.24-13.242-7.48-0.40281-12.87 6.355-13.24 13.242-0.41 7.472 6.35 12.871 13.24 13.242 7.47 0.402 12.87-6.359 13.24-13.242 0.17-3.227-4.83-3.207-5 0"/>
 </g>
</svg>
