<svg xmlns="http://www.w3.org/2000/svg" fill-rule="evenodd" stroke-linecap="round" stroke-linejoin="round" stroke-miterlimit="1.5" clip-rule="evenodd" viewBox="0 0 204 153">
  <path fill="#90a290" d="M68.7 7.6s-22 12-24.5 14.4c-2.7 2.4-10.5 6.2-11.6 22-1.1 15.8-.7 13.5-.7 13.5l-8.4-1.6.3-10.7s-.1-10 3.2-16.3c3.9-7.2 9.9-12 13.6-14.6a171 171 0 0114.2-8.8C61.8 1.9 66 0 66 0s.5.8 1.6 3.7c1.2 2.8 1 3.9 1 3.9z"/>
  <clipPath id="a">
    <path d="M68.7 7.6s-22 12-24.5 14.4c-2.7 2.4-10.5 6.2-11.6 22-1.1 15.8-.7 13.5-.7 13.5l-8.4-1.6.3-10.7s-.1-10 3.2-16.3c3.9-7.2 9.9-12 13.6-14.6a171 171 0 0114.2-8.8C61.8 1.9 66 0 66 0s.5.8 1.6 3.7c1.2 2.8 1 3.9 1 3.9z"/>
  </clipPath>
  <g fill="none" stroke="#505256" stroke-width="1.5px" clip-path="url(#a)">
    <path d="M29.6 36.7s2 .6 4.3.5M31.5 39.7s.6.3 2 .2M32.3 33.2s1.4 1 2.8 1"/>
  </g>
  <path fill="#505256" d="M66 0c.5-.2 1.6 1.3 2.4 3.4.7 2.1.9 4 .3 4.2-.5.2-1.6-1.3-2.4-3.4-.7-2.1-.9-4-.3-4.2z"/>
  <g fill="#c18888" fill-opacity=".4" fill-rule="nonzero">
    <path d="M10.2 70c0-1.6.2-2.9.4-4 .3-1.1.8-2 1.5-2.8.7-.7 1.7-1.3 3-1.7 1.3-.4 3-.5 5-.5h28.6c4.6 0 9.1.5 13.4 1.6 4.3 1.1 8.1 3 11.5 5.4a27 27 0 018 9.6c2 4 3 8.8 3 14.5 0 8-1.3 14.4-3.8 19.3a22 22 0 01-10.6 10.5c3.1 1 5.5 2.6 7 4.8 1.7 2.2 2.4 4.9 2.4 8 0 4-.9 7-2.7 9.5a17.9 17.9 0 01-7 5.5 32.6 32.6 0 01-9.8 2.6c-3.6.4-7.2.6-10.8.6H20.1c-2 0-3.7-.2-5-.6a7 7 0 01-3-1.6 5.6 5.6 0 01-1.5-2.8c-.2-1.1-.4-2.4-.4-4V70zm65.4 23c0-3-.4-5.8-1-8.4-.8-2.6-1.8-4.8-3.2-6.8a17 17 0 00-5.5-4.9 22.6 22.6 0 00-7.9-2.6v47.6c3-.4 5.7-1.3 8-2.8 2.2-1.5 4-3.3 5.4-5.6a25 25 0 003.1-7.5c.7-2.8 1-5.8 1-9zM58 144c4.4-.2 7.6-1 9.6-2.7a7.3 7.3 0 002.3-9c-.5-1-1.2-2-2.2-2.9-1-.8-2.3-1.5-3.9-2-1.6-.6-3.5-1-5.8-1V144zM110 105.1c-1.5 0-3-.1-4.6-.4a17.7 17.7 0 01-8.3-4c-1.2-1-2.2-2.3-3.1-4-1-1.5-1.6-3.4-2.2-5.6-.5-2.2-.7-4.7-.7-7.6 0-2.9.2-5.4.7-7.6.6-2.2 1.3-4 2.2-5.7a15 15 0 017-6.5c1.4-.6 2.9-1 4.4-1.4a26.6 26.6 0 019.1 0c1.6.3 3 .8 4.4 1.4a14.8 14.8 0 017 6.5c1 1.6 1.7 3.5 2.2 5.7a33.7 33.7 0 010 15.2c-.5 2.2-1.2 4-2.1 5.7a15 15 0 01-7 6.6 26.7 26.7 0 01-9 1.8zm2.5-21.6c0 2.4.2 4.3.5 6 .4 1.5.9 2.8 1.4 3.8.6 1 1.3 1.6 2 2a4.6 4.6 0 004.5 0c.8-.4 1.4-1 2-2 .6-1 1-2.3 1.4-3.9.4-1.6.5-3.5.5-5.9 0-2.4-.1-4.3-.5-6a13 13 0 00-1.4-3.8c-.6-1-1.2-1.6-2-2-.7-.4-1.5-.6-2.2-.6-.8 0-1.6.2-2.3.6-.7.4-1.4 1-2 2-.5 1-1 2.3-1.4 3.9-.3 1.6-.5 3.5-.5 5.9zM133.2 67.3c0-.7 0-1.3.2-1.8 0-.5.3-.9.6-1.2a3 3 0 011.3-.8l2.3-.2h12.6c2 0 4 .2 6 .7 1.9.5 3.6 1.3 5 2.4a12 12 0 013.6 4.3A14 14 0 01166 77c0 3.5-.6 6.3-1.7 8.5a9.8 9.8 0 01-4.7 4.7 6 6 0 013.2 2.1c.7 1 1 2.2 1 3.5 0 1.8-.4 3.2-1.2 4.2a8 8 0 01-3.1 2.5c-1.3.6-2.7 1-4.3 1.1l-4.8.3h-13c-.8 0-1.6 0-2.2-.3a2.5 2.5 0 01-2-2l-.1-1.6V67.3zm29 10.2c0-1.3-.2-2.6-.5-3.7a9.1 9.1 0 00-1.4-3 7.6 7.6 0 00-2.4-2.2c-1-.6-2.2-1-3.6-1.2v21.1c1.4-.2 2.6-.6 3.6-1.2 1-.7 1.7-1.5 2.4-2.5.6-1 1-2 1.4-3.3.3-1.3.4-2.6.4-4zm-7.9 22.6c2-.1 3.4-.5 4.3-1.2a3.2 3.2 0 001-4c-.2-.5-.5-1-1-1.3-.4-.4-1-.7-1.7-1l-2.6-.4v7.9zM187.1 63.3l.9.1c.2.1.4.2.6.5l.6.8.5 1.2 13 34.8a4.6 4.6 0 01.3 1.3c0 .7-.2 1.2-.6 1.5a2 2 0 01-1.3.5h-16c-.6 0-1 0-1.3-.2l-.8-.4-.6-.6-.2-.5-.3-1h-8l-.2.9-.2.7c0 .3-.2.4-.3.6a1 1 0 01-.4.4 2 2 0 01-.8.1h-3c-.5 0-.8-.2-.8-.7v-.6l.3-.9L180.4 66a6 6 0 011-2 2 2 0 011.5-.7h4.2zm-12.3 34.6h6.1l-3.1-11.1-3 11zM110 152.9c-1.5 0-3-.1-4.6-.4a17.7 17.7 0 01-8.3-4c-1.2-1-2.2-2.3-3.1-4-1-1.5-1.6-3.4-2.2-5.6-.5-2.2-.7-4.7-.7-7.6 0-2.9.2-5.4.7-7.6.6-2.2 1.3-4.1 2.2-5.7a15 15 0 017-6.5 18 18 0 014.4-1.4 26.5 26.5 0 019.1 0c1.6.3 3 .7 4.4 1.4a14.8 14.8 0 017 6.5c1 1.6 1.7 3.5 2.2 5.7a33.7 33.7 0 010 15.2c-.5 2.2-1.2 4-2.1 5.7a15 15 0 01-7 6.5c-1.5.7-3 1.1-4.5 1.4-1.5.3-3 .4-4.5.4zm2.5-21.6c0 2.3.2 4.3.5 6 .4 1.5.9 2.8 1.4 3.7.6 1 1.3 1.7 2 2a4.6 4.6 0 004.5 0c.8-.3 1.4-1 2-2 .6-1 1-2.2 1.4-3.8.4-1.6.5-3.6.5-6 0-2.3-.1-4.3-.5-5.8a13 13 0 00-1.4-3.9c-.6-1-1.2-1.6-2-2-.7-.4-1.5-.6-2.2-.6-.8 0-1.6.2-2.3.6-.7.4-1.4 1-2 2-.5 1-1 2.3-1.4 3.9-.3 1.5-.5 3.5-.5 5.9zM139.2 115.2a233 233 0 01-7.8 1.4c-.3 0-.6 0-.8-.2-.2-.1-.3-.4-.3-.7v-3.2c0-.4.2-.7.5-1 .3-.3.7-.4 1.4-.4h35.2c.6 0 1 .1 1.4.4.3.3.4.6.4 1v3.2c0 .3 0 .6-.3.7l-.8.2a233 233 0 01-7.8-1.4V148l-.1 1.7c-.2.5-.4.9-.7 1.2-.3.3-.7.6-1.3.7-.5.2-1.2.3-2 .3h-12.7c-.9 0-1.6-.1-2.2-.3a3 3 0 01-1.3-.7c-.3-.3-.5-.7-.6-1.2l-.2-1.8v-32.6z"/>
  </g>
  <g fill="#ae6464" fill-opacity=".6" fill-rule="nonzero">
    <path d="M4.7 64.4c0-1.5.2-2.8.4-3.9.3-1.1.8-2 1.5-2.8.7-.7 1.7-1.3 3-1.7 1.3-.4 3-.6 5-.6h28.6c4.6 0 9 .6 13.4 1.7 4.3 1.1 8.1 3 11.5 5.4a27 27 0 018 9.6c2 4 3 8.8 3 14.5 0 7.9-1.3 14.3-3.8 19.3a22 22 0 01-10.6 10.5c3.1 1 5.5 2.6 7 4.8 1.7 2.2 2.4 4.9 2.4 8 0 4-.9 7-2.7 9.5a17.9 17.9 0 01-7 5.5 32.6 32.6 0 01-9.8 2.6c-3.6.4-7.2.6-10.8.6H14.6c-2 0-3.7-.2-5-.6a7 7 0 01-3-1.7 5.6 5.6 0 01-1.5-2.7c-.2-1.1-.4-2.4-.4-4v-74zM70 87.6c0-3-.3-6-1-8.5-.7-2.6-1.7-4.9-3.1-6.8a17 17 0 00-5.5-4.9 22.6 22.6 0 00-7.9-2.6v47.6c3-.4 5.7-1.3 8-2.8 2.2-1.5 4-3.3 5.4-5.6a25 25 0 003.1-7.5c.7-2.8 1-5.8 1-9zm-17.5 50.9c4.4-.2 7.6-1 9.6-2.7a7.3 7.3 0 002.3-9c-.5-1.1-1.2-2-2.2-2.9-1-.8-2.3-1.5-3.9-2-1.6-.6-3.5-1-5.8-1v17.6zM104.5 99.6c-1.6 0-3-.1-4.6-.4a17.7 17.7 0 01-8.3-4c-1.2-1-2.2-2.3-3.1-4-1-1.5-1.6-3.4-2.2-5.6-.5-2.2-.7-4.7-.7-7.6 0-2.9.2-5.4.7-7.6.6-2.2 1.3-4 2.2-5.7a15 15 0 017-6.5c1.4-.6 2.9-1 4.4-1.4a26.6 26.6 0 019.1 0c1.6.3 3 .8 4.4 1.4a14.8 14.8 0 017 6.5c1 1.6 1.7 3.5 2.2 5.7.5 2.2.7 4.7.7 7.6 0 2.9-.2 5.4-.7 7.6-.5 2.2-1.2 4-2.1 5.7a15 15 0 01-7 6.5c-1.5.7-3 1.1-4.5 1.4-1.5.3-3 .4-4.5.4zM107 78c0 2.4.2 4.3.5 6 .4 1.5.9 2.8 1.4 3.7.6 1 1.3 1.7 2 2.1a4.6 4.6 0 004.5 0c.8-.4 1.4-1 2-2 .6-1 1-2.3 1.4-3.9.3-1.6.5-3.5.5-5.9 0-2.4-.2-4.3-.5-6a13 13 0 00-1.4-3.8c-.6-1-1.2-1.6-2-2-.7-.4-1.5-.6-2.2-.6-.8 0-1.6.2-2.3.6-.7.4-1.4 1-2 2-.5 1-1 2.3-1.4 3.9-.3 1.6-.5 3.5-.5 5.9zM127.7 61.7c0-.6 0-1.2.2-1.7 0-.5.3-.9.6-1.2a3 3 0 011.3-.8 8 8 0 012.3-.2h12.6c2 0 4 .2 6 .7 1.9.5 3.6 1.3 5 2.4a12 12 0 013.6 4.3 14 14 0 011.3 6.4c0 3.5-.6 6.3-1.7 8.5a9.8 9.8 0 01-4.7 4.7 6 6 0 013.2 2.1c.7 1 1 2.2 1 3.5 0 1.8-.4 3.2-1.2 4.2a8 8 0 01-3.1 2.5c-1.3.6-2.7 1-4.3 1.1l-4.8.3h-13a8 8 0 01-2.2-.3 2.5 2.5 0 01-2-2l-.1-1.6V61.7zm29 10.3c0-1.3-.2-2.6-.5-3.7a9.1 9.1 0 00-1.4-3 7.6 7.6 0 00-2.4-2.2c-1-.6-2.2-1-3.6-1.2V83c1.4-.2 2.6-.6 3.6-1.2 1-.7 1.7-1.5 2.4-2.5.6-1 1-2.1 1.4-3.3.3-1.3.4-2.6.4-4zm-7.9 22.6c2-.1 3.4-.5 4.3-1.2a3.2 3.2 0 001-4c-.2-.5-.5-1-1-1.3-.4-.4-1-.7-1.7-1l-2.6-.4v7.9zM181.6 57.8l.9.1c.2 0 .4.2.6.4l.6.9.5 1.2 13 34.8a4.5 4.5 0 01.3 1.3c0 .7-.2 1.2-.6 1.5a2 2 0 01-1.3.5h-16c-.6 0-1 0-1.3-.2l-.9-.4-.5-.6-.2-.5-.3-1h-8l-.2.9-.2.7c0 .3-.2.4-.3.6a1 1 0 01-.4.4 2 2 0 01-.8.1h-3c-.6 0-.9-.2-.9-.7l.1-.6.3-.9L175 60.5a6 6 0 011-2 2 2 0 011.5-.7h4.2zm-12.3 34.5h6.1l-3.1-11-3 11zM104.5 147.4c-1.6 0-3-.1-4.6-.4a17.7 17.7 0 01-8.3-4c-1.2-1-2.2-2.3-3.1-4-1-1.5-1.6-3.4-2.2-5.6-.5-2.2-.7-4.7-.7-7.6 0-2.9.2-5.4.7-7.6.6-2.2 1.3-4.1 2.2-5.7a15 15 0 017-6.5 18 18 0 014.4-1.4 26.5 26.5 0 019.1 0c1.6.3 3 .7 4.4 1.4a14.8 14.8 0 017 6.5c1 1.6 1.7 3.5 2.2 5.7.5 2.2.7 4.7.7 7.6 0 2.9-.2 5.4-.7 7.6-.5 2.2-1.2 4-2.1 5.7a15 15 0 01-7 6.5c-1.5.7-3 1.1-4.5 1.4-1.5.3-3 .4-4.5.4zm2.5-21.6c0 2.3.2 4.3.5 5.9.4 1.6.9 2.9 1.4 3.8.6 1 1.3 1.7 2 2a4.6 4.6 0 004.5 0c.8-.3 1.4-1 2-2 .6-1 1-2.2 1.4-3.8.3-1.6.5-3.6.5-6 0-2.3-.2-4.3-.5-5.8a13 13 0 00-1.4-3.9c-.6-1-1.2-1.6-2-2-.7-.4-1.5-.6-2.2-.6-.8 0-1.6.2-2.3.6-.7.4-1.4 1-2 2-.5 1-1 2.3-1.4 3.9-.3 1.5-.5 3.5-.5 5.9zM133.7 109.7a233 233 0 01-7.8 1.4c-.3 0-.6 0-.8-.2-.2-.1-.3-.4-.3-.7V107c0-.4.1-.7.4-1 .3-.3.8-.4 1.5-.4h35.2c.6 0 1 .1 1.4.4.3.3.4.6.4 1v3.2c0 .3 0 .6-.3.7l-.8.2a233 233 0 01-7.8-1.4v32.7l-.1 1.7c-.2.5-.4.9-.7 1.2-.3.3-.7.6-1.3.7-.5.2-1.2.3-2 .3H138c-1 0-1.6-.1-2.2-.3a3 3 0 01-1.3-.7c-.3-.3-.5-.7-.6-1.2l-.2-1.8v-32.6z"/>
  </g>
  <g fill="#a15454" fill-rule="nonzero">
    <path d="M0 59.7c0-1.5.1-2.8.4-4 .2-1 .7-2 1.5-2.7.7-.8 1.7-1.3 3-1.7 1.2-.4 3-.6 5-.6h28.5c4.7 0 9.1.6 13.5 1.7 4.3 1 8 2.9 11.4 5.3a27 27 0 018 9.7c2 4 3 8.7 3 14.4 0 8-1.2 14.4-3.8 19.4A22 22 0 0160 111.7c3.2 1 5.6 2.6 7.1 4.8 1.6 2.2 2.4 4.8 2.4 7.9 0 4-.9 7.1-2.7 9.5a17.9 17.9 0 01-7 5.6 32.6 32.6 0 01-9.9 2.5c-3.6.4-7.2.6-10.7.6H9.9c-2 0-3.8-.1-5-.5a7 7 0 01-3-1.7 5.6 5.6 0 01-1.5-2.7c-.3-1.2-.4-2.5-.4-4v-74zm65.3 23.1c0-3-.3-5.9-1-8.4-.7-2.6-1.7-4.9-3.2-6.9a17 17 0 00-5.4-4.8 22.6 22.6 0 00-8-2.6v47.6a18.4 18.4 0 0013.4-8.4 25 25 0 003.2-7.6c.7-2.8 1-5.7 1-8.9zm-17.5 51c4.4-.2 7.6-1.1 9.6-2.7a7.3 7.3 0 002.2-9c-.4-1.1-1.1-2-2.1-3-1-.8-2.3-1.4-4-2-1.5-.6-3.5-.9-5.7-1v17.6zM99.7 94.9c-1.5 0-3-.2-4.5-.4a17.7 17.7 0 01-8.3-4c-1.2-1-2.3-2.4-3.2-4-.9-1.6-1.6-3.4-2.1-5.6a33.8 33.8 0 010-15.2c.5-2.2 1.2-4.1 2.1-5.7a15 15 0 017-6.6 26.6 26.6 0 0113.5-1.3 15.8 15.8 0 018.3 3.9c1.3 1 2.4 2.4 3.2 4 1 1.6 1.6 3.5 2.1 5.7.6 2.1.8 4.7.8 7.6 0 2.8-.2 5.4-.8 7.6-.5 2.1-1.2 4-2 5.6a15 15 0 01-7.1 6.6c-1.4.6-2.9 1.1-4.4 1.4-1.5.2-3 .4-4.6.4zm2.6-21.6c0 2.3.1 4.3.5 5.9.3 1.6.8 2.8 1.4 3.8.6 1 1.2 1.7 2 2a4.6 4.6 0 004.5 0c.7-.3 1.4-1 2-2 .5-1 1-2.2 1.4-3.8.3-1.6.5-3.6.5-6 0-2.3-.2-4.3-.5-5.9a13 13 0 00-1.4-3.8c-.6-1-1.3-1.6-2-2-.7-.5-1.5-.7-2.3-.7-.7 0-1.5.2-2.2.6-.8.5-1.4 1.1-2 2.1-.6 1-1 2.2-1.4 3.8-.4 1.6-.5 3.6-.5 6zM123 57l.1-1.7c.1-.5.3-1 .7-1.3a3 3 0 011.3-.7c.6-.2 1.3-.3 2.2-.3H140c2 0 4 .3 6 .8 1.8.5 3.5 1.3 5 2.4a12 12 0 013.5 4.2 14 14 0 011.4 6.4c0 3.5-.6 6.4-1.7 8.6a9.8 9.8 0 01-4.7 4.6 6 6 0 013.1 2.2c.7 1 1 2.1 1 3.5 0 1.7-.3 3.1-1.1 4.2a8 8 0 01-3.2 2.5c-1.2.5-2.7 1-4.3 1-1.6.3-3.2.4-4.8.4h-12.9c-.9 0-1.6-.1-2.2-.3-.6-.2-1-.4-1.3-.7-.4-.4-.6-.8-.7-1.3l-.2-1.7V57zm28.9 10.3c0-1.4-.2-2.6-.5-3.8a9.1 9.1 0 00-1.4-3 7.6 7.6 0 00-2.4-2.2c-1-.5-2.1-1-3.5-1.1v21c1.4-.1 2.5-.5 3.5-1.2 1-.6 1.8-1.5 2.4-2.4.6-1 1.1-2.1 1.4-3.4.3-1.2.5-2.5.5-4zM144 89.8c2 0 3.4-.5 4.3-1.2a3.2 3.2 0 001-4c-.2-.4-.6-.9-1-1.2l-1.7-1c-.7-.2-1.6-.4-2.6-.4v7.8zM176.8 53c.4 0 .7 0 1 .2.2 0 .4.2.6.4l.5.8.6 1.3 13 34.7a4.5 4.5 0 01.3 1.4c0 .7-.2 1.2-.7 1.5a2 2 0 01-1.2.5h-16.1l-1.3-.2-.8-.5-.5-.5-.3-.5-.3-1h-8l-.1.8-.2.8-.3.6a1 1 0 01-.5.3 2 2 0 01-.8.2h-2.9c-.6 0-.9-.3-.9-.8l.1-.6.3-.8L170 55.7a6 6 0 011-2 2 2 0 011.5-.7h4.2zm-12.3 34.6h6.2l-3.2-11-3 11zM99.7 142.6c-1.5 0-3 0-4.5-.4a17.7 17.7 0 01-8.3-3.9c-1.2-1-2.3-2.4-3.2-4-.9-1.6-1.6-3.5-2.1-5.6-.5-2.2-.8-4.8-.8-7.7 0-2.8.3-5.4.8-7.6.5-2.2 1.2-4 2.1-5.6a15 15 0 017-6.6 18 18 0 014.5-1.3 26.5 26.5 0 019 0 15.9 15.9 0 018.3 3.9c1.3 1 2.4 2.4 3.2 4 1 1.6 1.6 3.4 2.1 5.6.6 2.2.8 4.8.8 7.6 0 3-.2 5.4-.8 7.6-.5 2.2-1.2 4.1-2 5.7a15 15 0 01-7.1 6.6 26.7 26.7 0 01-9 1.8zm2.6-21.6c0 2.4.1 4.4.5 6 .3 1.6.8 2.8 1.4 3.8.6 1 1.2 1.6 2 2a4.6 4.6 0 004.5 0c.7-.4 1.4-1 2-2 .5-1 1-2.2 1.4-3.8.3-1.6.5-3.6.5-6 0-2.3-.2-4.3-.5-5.9a13 13 0 00-1.4-3.8c-.6-1-1.3-1.7-2-2-.7-.5-1.5-.7-2.3-.7-.7 0-1.5.2-2.2.6-.8.4-1.4 1.1-2 2-.6 1-1 2.3-1.4 4-.4 1.5-.5 3.5-.5 5.8zM129 105a233 233 0 01-7.8 1.3l-.8-.1c-.2-.2-.3-.4-.3-.8v-3.2c0-.3.1-.6.4-1 .3-.2.8-.4 1.4-.4h35.2c.7 0 1.1.2 1.4.5.3.3.5.6.5 1v3.1c0 .4-.1.6-.3.8l-.8.1a233 233 0 01-7.8-1.4v32.8c0 .6 0 1.2-.2 1.6-.1.5-.3 1-.6 1.3-.3.3-.8.5-1.3.7-.6.2-1.3.2-2.1.2h-12.7c-.9 0-1.6 0-2.1-.2a3 3 0 01-1.3-.8c-.3-.3-.6-.7-.7-1.2l-.1-1.7V105z"/>
  </g>
</svg>
